<?xml version="1.0" standalone="no"?>
<!DOCTYPE svg PUBLIC "-//W3C//DTD SVG 20010904//EN" "http://www.w3.org/TR/2001/REC-SVG-20010904/DTD/svg10.dtd">
<svg version="1.0" xmlns="http://www.w3.org/2000/svg" width="130.000000pt" height="136.000000pt" viewBox="0 0 130.000000 136.000000" preserveAspectRatio="xMidYMid meet">
	<g transform="translate(0.000000,136.000000) scale(0.100000,-0.100000)" fill="#FFFFFF" stroke="none">
		<path d="M367 1233 c-4 -3 -7 -19 -7 -34 0 -31 28 -53 54 -43 22 8 31 51 16
69 -13 15 -51 20 -63 8z" />
		<path d="M515 1208 c-22 -26 -26 -39 -21 -67 6 -40 45 -81 77 -81 88 0 128
115 57 164 -38 27 -82 21 -113 -16z" />
		<path d="M285 1130 c3 -5 8 -10 11 -10 2 0 4 5 4 10 0 6 -5 10 -11 10 -5 0 -7
-4 -4 -10z" />
		<path d="M215 1120 c-3 -5 -1 -10 4 -10 6 0 11 5 11 10 0 6 -2 10 -4 10 -3 0
-8 -4 -11 -10z" />
		<path d="M715 1098 c-22 -26 -26 -39 -21 -67 11 -73 88 -104 140 -56 37 35 37
105 0 134 -41 32 -87 28 -119 -11z" />
		<path d="M318 1113 c7 -3 16 -2 19 1 4 3 -2 6 -13 5 -11 0 -14 -3 -6 -6z" />
		<path d="M202 1088 c-15 -15 -16 -38 -1 -38 5 0 7 5 3 12 -4 6 1 17 11 25 11
7 14 13 9 13 -6 0 -15 -5 -22 -12z" />
		<path d="M340 1085 c6 -8 8 -20 4 -27 -5 -10 -4 -10 5 -2 13 12 5 44 -11 44
-6 0 -5 -6 2 -15z" />
		<path d="M208 1018 c-4 -10 1 -23 13 -34 34 -30 119 -16 119 20 0 8 -3 7 -8
-1 -13 -21 -60 -33 -88 -23 -23 9 -24 12 -13 27 8 9 9 14 2 10 -6 -4 -13 -2
-15 5 -3 8 -6 6 -10 -4z" />
		<path d="M449 1019 c-10 -6 -6 -8 11 -7 17 2 24 -1 22 -11 -3 -12 0 -12 12 -2
10 8 16 9 21 1 8 -13 25 -13 25 1 0 5 -5 7 -10 4 -6 -3 -13 0 -16 8 -6 16 -44
19 -65 6z" />
		<path d="M915 988 c-22 -26 -26 -39 -21 -67 6 -40 46 -81 77 -81 51 0 88 39
89 93 0 83 -92 118 -145 55z" />
		<path d="M404 992 c3 -5 1 -12 -5 -14 -6 -2 -10 -11 -8 -21 3 -13 6 -12 16 8
8 17 8 27 1 32 -6 3 -8 1 -4 -5z" />
		<path d="M542 975 c4 -4 2 -15 -5 -23 -8 -11 -8 -14 0 -9 6 4 14 1 16 -5 3 -7
6 -3 6 9 1 12 -5 25 -11 29 -7 4 -10 4 -6 -1z" />
		<path d="M147 923 c-4 -3 -7 -13 -7 -22 1 -13 3 -13 11 2 11 19 8 33 -4 20z" />
		<path d="M195 919 c-4 -6 -5 -12 -2 -15 2 -3 7 2 10 11 7 17 1 20 -8 4z" />
		<path d="M391 925 c-1 -17 17 -40 31 -40 7 -1 12 -6 11 -13 -2 -7 2 -12 7 -12
6 0 10 4 10 9 0 11 -30 36 -30 25 -1 -5 -7 2 -15 16 -8 14 -14 21 -14 15z" />
		<path d="M630 905 c-11 -13 -10 -14 4 -9 9 3 16 10 16 15 0 13 -6 11 -20 -6z" />
		<path d="M690 911 c0 -9 30 -24 36 -18 2 1 -6 8 -16 15 -11 7 -20 8 -20 3z" />
		<path d="M455 890 c6 -8 10 -19 10 -24 0 -5 6 -10 13 -12 7 -1 8 0 2 3 -5 2
-8 8 -5 13 3 4 -3 14 -12 21 -15 12 -16 12 -8 -1z" />
		<path d="M504 886 c15 -12 23 -13 33 -4 7 6 11 14 7 17 -4 3 -9 0 -11 -6 -3
-10 -10 -10 -26 -2 -21 10 -21 9 -3 -5z" />
		<path d="M96 875 c-8 -22 -8 -22 7 -28 9 -3 13 2 12 14 -2 26 -11 33 -19 14z" />
		<path d="M234 879 c-4 -7 -3 -9 4 -5 5 3 13 0 15 -6 4 -9 6 -10 6 -1 1 17 -16
25 -25 12z" />
		<path d="M594 830 c0 -16 4 -30 7 -30 4 0 6 14 5 30 0 17 -4 30 -7 30 -4 0 -6
-13 -5 -30z" />
		<path d="M751 844 c-1 -11 -4 -24 -8 -28 -4 -3 -8 -14 -9 -22 -1 -9 1 -13 4
-9 4 4 7 10 8 13 0 4 4 15 8 24 4 10 6 23 3 30 -3 7 -6 4 -6 -8z" />
		<path d="M163 835 c-7 -8 -9 -16 -4 -19 5 -3 12 1 15 10 8 22 4 25 -11 9z" />
		<path d="M90 830 c0 -5 5 -10 11 -10 5 0 7 5 4 10 -3 6 -8 10 -11 10 -2 0 -4
-4 -4 -10z" />
		<path d="M324 825 c-4 -8 -3 -26 0 -40 5 -20 13 -25 36 -25 32 0 46 25 35 60
-8 24 -62 28 -71 5z" />
		<path d="M228 823 c6 -3 12 -12 12 -20 0 -18 13 -9 16 10 1 7 -8 13 -20 14
-11 1 -15 -1 -8 -4z" />
		<path d="M855 820 c3 -5 8 -10 11 -10 2 0 4 5 4 10 0 6 -5 10 -11 10 -5 0 -7
-4 -4 -10z" />
		<path d="M825 810 c-3 -5 -1 -10 4 -10 6 0 11 5 11 10 0 6 -2 10 -4 10 -3 0
-8 -4 -11 -10z" />
		<path d="M1029 795 c-80 -43 -51 -165 39 -165 91 0 122 124 41 165 -34 18 -47
18 -80 0z" />
		<path d="M138 770 c39 -24 62 -26 62 -4 0 13 -3 14 -15 4 -11 -9 -19 -8 -37 4
-12 9 -27 16 -33 16 -5 0 5 -9 23 -20z" />
		<path d="M216 773 c-6 -14 -5 -15 5 -6 7 7 10 15 7 18 -3 3 -9 -2 -12 -12z" />
		<path d="M812 781 c2 -7 7 -12 11 -12 12 1 9 15 -3 20 -7 2 -11 -2 -8 -8z" />
		<path d="M637 773 c-10 -9 -9 -23 1 -23 5 0 9 7 9 15 0 17 -1 18 -10 8z" />
		<path d="M372 693 c-33 -16 -45 -40 -44 -85 1 -41 19 -65 57 -78 30 -10 40 -9
67 7 99 57 23 206 -80 156z" />
		<path d="M180 689 c0 -5 5 -7 10 -4 6 3 10 8 10 11 0 2 -4 4 -10 4 -5 0 -10
-5 -10 -11z" />
		<path d="M206 682 c-3 -6 5 -13 19 -16 14 -4 25 -13 25 -21 0 -7 4 -17 10 -20
6 -4 7 2 1 16 -10 27 -47 54 -55 41z" />
		<path d="M120 658 c-10 -21 -10 -21 3 -6 8 10 18 14 22 10 5 -4 5 -1 1 6 -10
17 -14 15 -26 -10z" />
		<path d="M823 656 c-22 -19 -28 -32 -28 -66 0 -97 123 -125 160 -37 17 42 9
83 -23 107 -33 27 -75 25 -109 -4z" />
		<path d="M103 599 c-2 -23 3 -25 10 -4 4 8 3 16 -1 19 -4 3 -9 -4 -9 -15z" />
		<path d="M253 595 c0 -8 4 -12 9 -9 5 3 6 10 3 15 -9 13 -12 11 -12 -6z" />
		<path d="M1108 569 c-11 -6 -18 -22 -18 -39 0 -23 5 -31 25 -36 48 -12 73 36
37 69 -21 20 -21 20 -44 6z" />
		<path d="M111 563 c-1 -13 16 -26 37 -29 6 -1 10 2 6 7 -3 5 -11 9 -19 9 -7 0
-16 6 -18 13 -4 9 -6 9 -6 0z" />
		<path d="M250 563 c0 -6 -12 -15 -27 -20 -15 -5 -23 -12 -17 -15 12 -8 61 28
51 38 -4 4 -7 2 -7 -3z" />
		<path d="M654 546 c-85 -37 -59 -166 34 -166 101 0 115 146 17 173 -11 4 -34
0 -51 -7z" />
		<path d="M170 530 c0 -5 5 -10 11 -10 5 0 7 5 4 10 -3 6 -8 10 -11 10 -2 0 -4
-4 -4 -10z" />
		<path d="M949 467 c-47 -36 -48 -111 -2 -147 31 -24 65 -26 98 -4 71 46 39
164 -44 164 -20 0 -43 -6 -52 -13z" />
		<path d="M363 446 c-39 -34 -39 -98 0 -132 73 -63 170 12 132 103 -24 57 -84
70 -132 29z" />
		<path d="M142 441 c-11 -7 -10 -9 3 -14 9 -4 14 -3 10 2 -3 5 1 12 7 14 7 3 9
6 3 6 -5 0 -16 -3 -23 -8z" />
		<path d="M114 369 c0 -16 4 -29 8 -29 5 0 6 -4 3 -10 -3 -5 -2 -10 3 -10 6 0
13 7 16 16 3 8 2 13 -3 10 -10 -7 -23 22 -16 34 3 5 2 11 -3 14 -5 3 -8 -8 -8
-25z" />
		<path d="M260 391 c0 -6 4 -12 8 -15 5 -3 9 1 9 9 0 8 -4 15 -9 15 -4 0 -8 -4
-8 -9z" />
		<path d="M530 356 c-28 -35 11 -93 48 -70 35 22 22 84 -18 84 -10 0 -23 -7
-30 -14z" />
		<path d="M780 353 c-66 -24 -78 -117 -21 -160 28 -22 85 -16 111 12 61 65 -7
178 -90 148z" />
		<path d="M230 305 c-19 -14 -30 -25 -24 -25 10 0 73 49 63 50 -3 0 -20 -11
-39 -25z" />
		<path d="M223 218 c-12 -19 -11 -57 2 -55 5 1 9 -3 8 -10 -1 -6 4 -10 11 -9
19 3 46 26 46 40 -1 6 -10 0 -20 -13 -22 -25 -26 -21 -10 9 8 16 8 18 -5 14
-8 -3 -12 -10 -9 -15 3 -5 1 -9 -4 -9 -12 0 -24 29 -16 41 3 5 10 9 15 9 6 0
7 -4 4 -10 -3 -6 1 -7 10 -3 13 5 14 7 3 14 -18 12 -25 11 -35 -3z" />
		<path d="M369 211 c-19 -15 -24 -29 -24 -65 0 -58 28 -90 80 -90 74 0 112 87
64 148 -26 32 -84 36 -120 7z" />
		<path d="M556 199 c-35 -41 -34 -83 3 -120 58 -57 141 -21 141 61 0 85 -91
123 -144 59z" />
	</g>
</svg>
